<svg id="Calque_1" data-name="Calque 1" xmlns="http://www.w3.org/2000/svg" xmlns:xlink="http://www.w3.org/1999/xlink" viewBox="0 0 144.48 34.54" fill="#a7b5c3"><defs><style>.cls-1{fill:none;}.cls-2{clip-path:url(#clip-path);}.cls-3,.cls-4{fill-rule:evenodd;}.cls-3{fill:url(#New_Gradient);}.cls-4{fill:url(#New_Gradient_7);}.cls-5{fill:url(#New_Gradient_1);}.cls-6{fill:url(#New_Gradient_6);}.cls-7{fill:#a7b5c3;}</style><clipPath id="clip-path" transform="translate(0.06 0.08)"><path class="cls-1" d="M34.37,17.19A17.19,17.19,0,1,1,17.19,0,17.18,17.18,0,0,1,34.37,17.19Z"/></clipPath><linearGradient id="New_Gradient" x1="-681.43" y1="195.87" x2="-681.43" y2="230.36" gradientTransform="translate(689.25 -195.87)" gradientUnits="userSpaceOnUse"><stop offset="0.02" stop-color="#a7b5c3"/><stop offset="0.98" stop-color="#a7b5c3"/></linearGradient><linearGradient id="New_Gradient_7" x1="-667.04" y1="230.36" x2="-667.04" y2="195.87" gradientTransform="translate(689.25 -195.87)" gradientUnits="userSpaceOnUse"><stop offset="0" stop-color="#a7b5c3"/><stop offset="1" stop-color="#a7b5c3"/></linearGradient><linearGradient id="New_Gradient_1" x1="26.03" y1="-0.53" x2="-5.92" y2="42.13" gradientUnits="userSpaceOnUse"><stop offset="0" stop-color="#ffffff"/><stop offset="1" stop-color="#a7b5c3"/></linearGradient><linearGradient id="New_Gradient_6" x1="-384.55" y1="409.9" x2="-384.55" y2="407.31" gradientTransform="translate(598.2 -509.35) scale(1.26)" gradientUnits="userSpaceOnUse"><stop offset="0" stop-color="#a7b5c3"/><stop offset="1" stop-color="#a7b5c3"/></linearGradient></defs><title>cafffeine-full</title><g class="cls-2"><polygon class="cls-3" points="0 0 9 0 15.45 0 9.14 16.45 15.64 16.45 9.93 34.49 0 34.49 0 0 0 0"/><polygon class="cls-4" points="31.89 0 34.49 0 34.49 34.49 16.25 34.49 9.93 34.49 26.58 12.03 19.07 12.03 23.82 0 31.89 0"/><polygon class="cls-5" points="23.82 0.01 15.45 0.01 9.14 16.45 15.64 16.45 9.93 34.54 26.58 12.03 19.07 12.03 23.82 0.01"/></g><path class="cls-6" d="M110.57,5h2.08a1.88,1.88,0,0,1,1.39.59A2,2,0,0,1,114.62,7V8.27h-4.05V5Z" transform="translate(0.06 0.08)"/><path class="cls-7" d="M52.79,20.56h2.89a6.46,6.46,0,0,1-2.43,3.8,7.23,7.23,0,0,1-4.51,1.37,6.33,6.33,0,0,1-5.14-2.2,9,9,0,0,1-1.85-6.12,9,9,0,0,1,1.79-5.94,6.37,6.37,0,0,1,5.14-2.2,6.84,6.84,0,0,1,5.38,2.14,8.13,8.13,0,0,1,1.5,3h-4a3.91,3.91,0,0,0-.58-.89,2.74,2.74,0,0,0-2.14-.83,2.79,2.79,0,0,0-2.08.83,5.94,5.94,0,0,0-1,3.92,5.68,5.68,0,0,0,1,3.86,2.71,2.71,0,0,0,2.26,1,3.16,3.16,0,0,0,1.67-.41.81.81,0,0,0,.32-.21l.32-.33a2.39,2.39,0,0,1,.46-.47,1.56,1.56,0,0,1,1-.3Z" transform="translate(0.06 0.08)"/><path class="cls-7" d="M141.29,20.56h2.89a6.49,6.49,0,0,1-2.42,3.8,7.25,7.25,0,0,1-4.51,1.37,6.35,6.35,0,0,1-5.15-2.2,9.08,9.08,0,0,1-1.85-6.12A9,9,0,0,1,132,11.47a6.39,6.39,0,0,1,5.15-2.2,6.87,6.87,0,0,1,5.38,2.14,9.24,9.24,0,0,1,1.85,6.12v.65a1,1,0,0,1-.06.42h-10a4.15,4.15,0,0,0,.86,2.73,2.72,2.72,0,0,0,2.26,1A3.38,3.38,0,0,0,139,22c.68-.33.76-.71,1.27-1.12a1.68,1.68,0,0,1,1.07-.3Zm-6.93-4.63h5.89a3.85,3.85,0,0,0-.81-2.38,2.73,2.73,0,0,0-2.13-.83,2.81,2.81,0,0,0-2.09.83,3.49,3.49,0,0,0-.86,2.38Z" transform="translate(0.06 0.08)"/><path class="cls-7" d="M106.26,20.56h2.9a6.55,6.55,0,0,1-2.43,3.8,7.25,7.25,0,0,1-4.51,1.37,6.36,6.36,0,0,1-5.15-2.2,9.08,9.08,0,0,1-1.85-6.12A9,9,0,0,1,97,11.47a6.39,6.39,0,0,1,5.15-2.2,6.87,6.87,0,0,1,5.38,2.14,9.24,9.24,0,0,1,1.85,6.12v.65a1,1,0,0,1-.06.42h-10a4.1,4.1,0,0,0,.87,2.73,2.69,2.69,0,0,0,2.25,1,3.38,3.38,0,0,0,1.47-.3c.69-.33.76-.71,1.27-1.12a1.7,1.7,0,0,1,1.07-.3Zm-6.93-4.63h5.89a3.85,3.85,0,0,0-.81-2.38,2.72,2.72,0,0,0-2.13-.83,2.77,2.77,0,0,0-2.08.83,3.44,3.44,0,0,0-.87,2.38Z" transform="translate(0.06 0.08)"/><path class="cls-7" d="M129.19,25.43h-2a1.92,1.92,0,0,1-1.42-.56,2,2,0,0,1-.55-1.46h0V15.33a2.46,2.46,0,0,0-.84-2.07,2.93,2.93,0,0,0-1.88-.66,2.85,2.85,0,0,0-1.85.66,2.5,2.5,0,0,0-.81,2.07v10.1h-4V16.17c0-4.53,2.26-6.68,6.59-6.89,4.45,0,6.82,2.26,6.82,6.89v9.26Z" transform="translate(0.06 0.08)"/><path class="cls-7" d="M110.57,9.63h2.08a1.85,1.85,0,0,1,1.39.6,1.94,1.94,0,0,1,.58,1.42V25.43h-4.05V9.63Z" transform="translate(0.06 0.08)"/><path class="cls-7" d="M88.05,25.43V9.16A4.25,4.25,0,0,1,89.15,6a4.75,4.75,0,0,1,3.41-1,5.63,5.63,0,0,1,.92.06,7.82,7.82,0,0,1,1,0V8.32h-1a2.19,2.19,0,0,0-1.15.24,1.22,1.22,0,0,0-.29.95v1.07h2.68v.89a2,2,0,0,1-.58,1.46,1.88,1.88,0,0,1-1.33.56H92V25.43Z" transform="translate(0.06 0.08)"/><path class="cls-7" d="M79.71,25.43V9.16A4.29,4.29,0,0,1,80.81,6a4.75,4.75,0,0,1,3.41-1,5.68,5.68,0,0,1,.93.06,7.94,7.94,0,0,1,1,0V8.32h-1a2.21,2.21,0,0,0-1.16.24,1.22,1.22,0,0,0-.29.95v1.07h2.49v.89a1.94,1.94,0,0,1-.58,1.46,1.86,1.86,0,0,1-1.33.56h-.58V25.43Z" transform="translate(0.06 0.08)"/><path class="cls-7" d="M71.43,25.43V9.16A4.29,4.29,0,0,1,72.53,6a4.75,4.75,0,0,1,3.41-1,5.68,5.68,0,0,1,.93.06,7.94,7.94,0,0,1,1,0V8.32h-1a2.14,2.14,0,0,0-1.15.24,1.19,1.19,0,0,0-.29.95v1.07H94.31v.89a2,2,0,0,1-.57,1.46,1.88,1.88,0,0,1-1.33.56h-17V25.43Z" transform="translate(0.06 0.08)"/><path class="cls-7" d="M69.49,25.43h-2A1.89,1.89,0,0,1,66.16,25a9.07,9.07,0,0,1-4.12.84c-3.22-.1-5.56-1.49-5.56-5.07,0-2.94,1.66-4.15,3.83-4.74,1.36-.36,5.37-.4,5.37-2s-2.94-1.58-4-1.19a1.58,1.58,0,0,0-.92.89H56.89a4.56,4.56,0,0,1,1.62-3A6.55,6.55,0,0,1,63,9.27a8.49,8.49,0,0,1,4.85,1.13,3.84,3.84,0,0,1,1.68,3.33v11.7Zm-3.75-8a15.32,15.32,0,0,1-3.59,1.07c-1.73.5-2.67,2.19-1.39,3.51a2.4,2.4,0,0,0,1.85.47A3.26,3.26,0,0,0,65.74,19V17.47Z" transform="translate(0.06 0.08)"/></svg>