<svg xmlns="http://www.w3.org/2000/svg" width="158" height="30.214"><defs><linearGradient id="a" x1="-.003" x2=".997" y1=".5" y2=".5" gradientUnits="objectBoundingBox"><stop offset="0" stop-color="#a7b5c3"/><stop offset=".104" stop-color="#a7b5c3"/><stop offset=".235" stop-color="#a7b5c3"/><stop offset=".3" stop-color="#a7b5c3"/><stop offset=".5" stop-color="#a7b5c3"/><stop offset=".566" stop-color="#a7b5c3"/><stop offset=".646" stop-color="#a7b5c3"/><stop offset=".711" stop-color="#a7b5c3"/><stop offset=".75" stop-color="#a7b5c3"/><stop offset="1" stop-color="#a7b5c3"/></linearGradient></defs><path fill="url(#a)" d="M217.061 191.937a2.06 2.06 0 0 1-2.379 1.536 6.362 6.362 0 0 0-1.2-.11 8.006 8.006 0 0 0-7.819 8.037v9.639a2.037 2.037 0 0 1-4.073 0v-19.278a2.037 2.037 0 1 1 4.073 0v.787a11.343 11.343 0 0 1 7.819-3.04 11.885 11.885 0 0 1 1.877.149 1.936 1.936 0 0 1 1.702 2.28Zm-22.744.013a9.673 9.673 0 0 1 2.462 7.063v12.025a2.036 2.036 0 0 1-4.073 0v-.6a10.889 10.889 0 0 1-7.54 3 11.252 11.252 0 0 1-6.038-1.777 6.156 6.156 0 0 1-2.867-5.361c0-4.85 3.731-7.988 9.979-7.988a24.668 24.668 0 0 1 6.465.835 6.213 6.213 0 0 0-1.3-4.544c-.938-1-2.521-1.508-4.7-1.515a15.517 15.517 0 0 0-5.468 1.228 1.928 1.928 0 0 1-1.409-3.589 17.9 17.9 0 0 1 6.969-1.371c3.225.003 5.825.899 7.52 2.594Zm-1.611 10.815a22.923 22.923 0 0 0-6.121-.862c-2.887 0-6.327.935-6.327 4.228 0 2.311 1.816 3.679 5.553 3.679 3.8 0 6.9-2.884 6.9-6.1Zm-37.864-9.465a7.489 7.489 0 0 1 6.158 2.843 2.033 2.033 0 0 0 2.792.17 1.952 1.952 0 0 0 .152-2.795 11.165 11.165 0 0 0-9.1-4.16 12.041 12.041 0 1 0 9.1 19.922 2.019 2.019 0 0 0-3.051-2.644 7.993 7.993 0 0 1-13.953-5.236 8.014 8.014 0 0 1 7.902-8.1Zm15.534-10.069a2.015 2.015 0 0 0-2.037 2.037v25.775a2.037 2.037 0 0 0 4.073 0v-25.78a2.015 2.015 0 0 0-2.036-2.036Zm93.7 6.132a10.443 10.443 0 0 0-7.128 2.788v-.386a2.036 2.036 0 1 0-4.073 0v19.277a2.036 2.036 0 0 0 4.073 0v-9.787c0-4.345 2.834-8.037 7.128-8.037 5.135 0 6.322 4.227 6.322 8.037v9.787a2.037 2.037 0 0 0 4.073 0v-10.194c0-7.113-3.671-11.489-10.395-11.489Zm34.306 13.821H283.1a7.183 7.183 0 0 0 7.4 6.084 8.457 8.457 0 0 0 5.563-2.047 1.9 1.9 0 0 1 1.307-.463 2 2 0 0 1 2.022 2.066 2.237 2.237 0 0 1-.678 1.565 11.9 11.9 0 0 1-8.3 3.056c-6.862 0-11.843-5.08-11.843-12.019 0-6.852 4.845-12.063 11.27-12.063 7.12 0 10.962 5.852 10.962 11.358a2.387 2.387 0 0 1-2.421 2.459Zm-1.97-3.34c-.446-4.342-3.686-6.626-6.618-6.626-3.059 0-6.194 2.554-6.741 6.626Zm-50.842-7.89a9.673 9.673 0 0 1 2.462 7.063v12.025a2.036 2.036 0 0 1-4.073 0v-.6a10.889 10.889 0 0 1-7.54 3 11.251 11.251 0 0 1-6.037-1.777 6.155 6.155 0 0 1-2.867-5.361c0-4.85 3.731-7.988 9.98-7.988a24.664 24.664 0 0 1 6.465.835 6.213 6.213 0 0 0-1.295-4.544c-.938-1-2.521-1.508-4.7-1.515a15.514 15.514 0 0 0-5.467 1.228 1.928 1.928 0 0 1-1.409-3.589 17.9 17.9 0 0 1 6.969-1.371c3.218-.001 5.818.895 7.513 2.59Zm-1.611 10.815a22.923 22.923 0 0 0-6.121-.862c-2.886 0-6.327.935-6.327 4.228 0 2.311 1.816 3.679 5.553 3.679 3.8 0 6.9-2.884 6.9-6.1Zm-22.4-13.04a2.015 2.015 0 0 0-2.037 2.037v19.277a2.036 2.036 0 0 0 4.073 0v-19.282a2.015 2.015 0 0 0-2.03-2.037Zm2.282-4.216a2.282 2.282 0 1 1-2.282-2.282 2.282 2.282 0 0 1 2.288 2.277Z" data-name="Tracé 35668" transform="translate(-142.801 -183.226)"/></svg>