<svg width="100" height="29" viewBox="0 0 149 44" fill="none" xmlns="http://www.w3.org/2000/svg">
<g clip-path="url(#clip0_401_2)">
<path d="M6.19001 30.08H6.39001C7.20814 30.08 8.01827 30.2412 8.77413 30.5542C9.52998 30.8673 10.2168 31.3262 10.7953 31.9047C11.3738 32.4833 11.8327 33.17 12.1458 33.9259C12.4589 34.6818 12.62 35.4919 12.62 36.31C12.6213 37.129 12.4611 37.9402 12.1487 38.6972C11.8362 39.4542 11.3775 40.1422 10.7988 40.7218C10.2202 41.3013 9.53295 41.7611 8.77644 42.0748C8.01993 42.3885 7.20899 42.55 6.39001 42.55H6.19001C4.54292 42.5394 2.96704 41.877 1.80704 40.7077C0.647041 39.5383 -0.00266955 37.9571 8.2447e-06 36.31C-2.567e-05 34.6646 0.650854 33.086 1.81057 31.9188C2.97028 30.7516 4.54465 30.0906 6.19001 30.08Z" fill="url(#paint0_linear_401_2)"/>
<path d="M19.1899 21.9V21.74C19.1899 9.82 27.6699 0 39.8199 0C53.7699 0 60.1899 10.83 60.1899 22.68C60.1899 23.61 60.1099 24.68 60.0399 25.79H30.9399C32.1099 31.17 35.8499 33.97 41.1499 33.97C45.1499 33.97 47.9999 32.73 51.2799 29.69L58.0599 35.69C54.1599 40.52 48.5499 43.48 40.9899 43.48C28.4499 43.48 19.1899 34.68 19.1899 21.9ZM48.6499 18.39C47.9499 13.09 44.8299 9.51 39.8399 9.51C34.8499 9.51 31.7399 13.01 30.8399 18.39H48.6499Z" fill="white"/>
<path d="M83.93 29.53L75.51 42.53H63.12L77.77 21.33L63.67 0.73999H76.37L84.19 13.01L92.04 0.73999H104.43L90.32 21.19L105.05 42.55H92.35L83.93 29.53Z" fill="white"/>
<path d="M107.39 21.9V21.74C107.39 9.82 115.88 0 128.04 0C142.04 0 148.38 10.83 148.38 22.68C148.38 23.61 148.3 24.68 148.22 25.79H119.19C120.36 31.17 124.1 33.97 129.4 33.97C133.4 33.97 136.25 32.73 139.53 29.69L146.31 35.69C142.41 40.52 136.8 43.48 129.24 43.48C116.66 43.48 107.39 34.68 107.39 21.9ZM136.85 18.39C136.15 13.09 133.03 9.51 128.04 9.51C123.05 9.51 119.94 13.01 119.04 18.39H136.85Z" fill="white"/>
</g>
<defs>
<linearGradient id="paint0_linear_401_2" x1="0" y1="36" x2="13" y2="36" gradientUnits="userSpaceOnUse">
<stop offset="0.34375" stop-color="#FFCC2F"/>
<stop offset="1" stop-color="#EF5734"/>
</linearGradient>
<clipPath id="clip0_401_2">
<rect width="148.38" height="43.48" fill="white"/>
</clipPath>
</defs>
</svg>
